<svg width="149" height="30" viewBox="0 0 149 30" fill="none" xmlns="http://www.w3.org/2000/svg">
<path d="M38.7505 14.52L42.3905 0.799999H57.8705L49.1905 30H33.0305L29.0705 16.84L25.0705 30H8.91047L0.230469 0.799999H15.7105L19.3105 14.56L23.9505 0.799999H34.1505L38.7505 14.52ZM74.0955 0.799999V30H58.4555V0.799999H74.0955ZM106.564 30H77.2836V0.799999H92.9636V18H106.564V30ZM108.846 0.799999H128.046C141.766 0.799999 148.166 7.2 148.166 14.72V16.08C148.166 23.6 141.766 30 128.046 30H108.846V0.799999ZM132.366 15.56V15.24C132.366 13.44 130.886 11.96 127.446 11.96H124.286V18.84H127.446C130.886 18.84 132.366 17.36 132.366 15.56Z" fill="#0030AA"/>
</svg>
