<svg width="128" height="128" viewBox="0 0 128 128" fill="none" xmlns="http://www.w3.org/2000/svg">
<path d="M69.333 13.333V26.6663C69.333 39.2371 69.333 45.5225 73.2381 49.4278C77.1437 53.333 83.429 53.333 95.9997 53.333H117.333" stroke="#0030AA" stroke-width="8"/>
<path d="M37.3333 74.667L32 80.0003L37.3333 85.3337M61.3333 85.3337L66.6667 90.667L61.3333 96.0003M53.3333 74.667L45.3333 96.0003" stroke="#0030AA" stroke-width="8" stroke-linecap="round" stroke-linejoin="round"/>
<path d="M14.667 53.333C14.667 51.1238 12.8761 49.333 10.667 49.333C8.45788 49.333 6.667 51.1238 6.667 53.333H14.667ZM113.334 74.6663C113.334 76.8754 115.125 78.6663 117.334 78.6663C119.543 78.6663 121.334 76.8754 121.334 74.6663H113.334ZM7.22748 31.608C7.01126 33.8066 8.6182 35.7641 10.8167 35.9804C13.0153 36.1967 14.9728 34.5897 15.1891 32.3912L7.22748 31.608ZM120.773 96.3911C120.99 94.1927 119.382 92.2348 117.184 92.0188C114.985 91.8028 113.028 93.4098 112.812 95.6081L120.773 96.3911ZM74.667 113.333H53.3337V121.333H74.667V113.333ZM14.667 74.6663V53.333H6.667V74.6663H14.667ZM113.334 72.3351V74.6663H121.334V72.3351H113.334ZM79.4201 24.5923L100.534 43.5944L105.885 37.648L84.7721 18.6459L79.4201 24.5923ZM121.334 72.3351C121.334 63.3303 121.414 57.629 119.142 52.5275L111.834 55.782C113.253 58.9676 113.334 62.6236 113.334 72.3351H121.334ZM100.534 43.5944C107.752 50.0908 110.416 52.5969 111.834 55.782L119.142 52.5275C116.87 47.4258 112.578 43.6718 105.885 37.648L100.534 43.5944ZM53.4926 14.6663C61.9289 14.6663 65.1123 14.728 67.9497 15.8168L70.8158 8.34789C66.2729 6.60453 61.323 6.66629 53.4926 6.66629V14.6663ZM84.7721 18.6459C78.9801 13.4331 75.3587 10.091 70.8158 8.34789L67.9497 15.8168C70.7881 16.9059 73.1817 18.9775 79.4201 24.5923L84.7721 18.6459ZM53.3337 113.333C43.164 113.333 35.939 113.324 30.4582 112.587C25.0924 111.866 22.0009 110.513 19.7438 108.256L14.0869 113.913C18.0782 117.904 23.1393 119.675 29.3922 120.516C35.53 121.341 43.3901 121.333 53.3337 121.333V113.333ZM6.667 74.6663C6.667 84.6097 6.65852 92.47 7.48369 98.6076C8.32438 104.86 10.0957 109.922 14.0869 113.913L19.7438 108.256C17.4867 105.999 16.1338 102.907 15.4124 97.542C14.6755 92.061 14.667 84.8359 14.667 74.6663H6.667ZM74.667 121.333C84.6105 121.333 92.4707 121.341 98.6083 120.516C104.861 119.675 109.922 117.904 113.914 113.913L108.257 108.256C106 110.513 102.908 111.866 97.5427 112.587C92.0617 113.324 84.8366 113.333 74.667 113.333V121.333ZM53.4926 6.66629C43.4957 6.66629 35.5972 6.65786 29.4343 7.48266C23.1594 8.3225 18.0813 10.0919 14.0869 14.0862L19.7438 19.7431C21.9978 17.4891 25.0988 16.1343 30.4955 15.412C36.0043 14.6747 43.2703 14.6663 53.4926 14.6663V6.66629ZM15.1891 32.3912C15.8366 25.8079 17.2294 22.2575 19.7438 19.7431L14.0869 14.0862C9.63409 18.5391 7.94401 24.3235 7.22748 31.608L15.1891 32.3912ZM112.812 95.6081C112.164 102.191 110.771 105.741 108.257 108.256L113.914 113.913C118.367 109.46 120.057 103.676 120.773 96.3911L112.812 95.6081Z" fill="#0030AA"/>
</svg>
