<svg width="124" height="114" viewBox="0 0 124 114" fill="none" xmlns="http://www.w3.org/2000/svg">
<path d="M99.2357 0.428711C100.482 0.428711 101.64 1.02981 102.359 2.02212L102.639 2.47073L123.245 41.1077L123.466 41.6343L123.525 41.8287L123.613 42.2263L123.661 42.6788L123.65 43.19L123.664 42.8573C123.664 43.3978 123.553 43.9126 123.352 44.3801L123.204 44.6866L122.995 45.0291L122.724 45.3814L65.0352 112.053C64.5204 112.744 63.8153 113.2 63.0495 113.419L62.7512 113.491L62.2503 113.561L61.949 113.572L61.4316 113.537L60.9939 113.454L60.4627 113.279L60.3305 113.217C59.8661 113.012 59.4392 112.706 59.0823 112.304L1.11364 45.3068L0.794217 44.8563L0.547823 44.3775L0.369468 43.8668L0.250463 43.1926L0.249023 42.5374L0.325446 42.0298L0.374765 41.8282L0.549108 41.334L0.689715 41.0424L21.2611 2.47073C21.8477 1.37093 22.9229 0.632368 24.1368 0.464917L24.6645 0.428711H99.2357ZM82.038 46.7144H41.8466L61.9551 98.9659L82.038 46.7144ZM33.5873 46.7144H12.5222L50.4403 90.5213L33.5873 46.7144ZM111.363 46.7144H90.3128L73.4803 90.4853L111.363 46.7144ZM41.502 8.13786H26.9736L10.5113 39.0001H33.2685L41.502 8.13786ZM74.4111 8.13786H49.4837L41.2502 39.0001H82.6397L74.4111 8.13786ZM96.9214 8.13786H82.3928L90.6265 39.0001H113.373L96.9214 8.13786Z" fill="#0030AA"/>
</svg>
