<svg width="128" height="88" viewBox="0 0 128 88" fill="none" xmlns="http://www.w3.org/2000/svg">
<path d="M51.645 66.6651L91.2711 12.9843C92.583 11.2071 95.0095 10.6788 96.9414 11.7497C98.6803 12.7136 99.5331 14.7035 99.0947 16.5896L98.9002 17.213L74.3898 79.2733C71.7298 86.0083 64.1136 89.3118 57.3786 86.6519C56.8499 86.4431 56.3354 86.2001 55.8383 85.9246C49.5033 82.413 47.2144 74.4308 50.726 68.0958L51.1623 67.3655L51.645 66.6651ZM75.7165 50.0519L59.2882 72.3071L59.0348 72.7015C58.0669 74.4476 58.6978 76.6478 60.444 77.6157L60.8682 77.816C62.5379 78.4754 64.4041 77.8043 65.2948 76.3111L65.5539 75.7836L75.7165 50.0519ZM105.86 15.9548C110.639 19.8265 114.964 24.4216 118.667 29.7107C121.989 34.4548 125.188 40.1992 127.027 44.9002C127.983 47.3432 126.778 50.0985 124.335 51.0545C121.892 52.0104 119.136 50.8049 118.18 48.3619C117.564 46.7872 116.742 45.0292 115.791 43.2204L102.811 50.7145C100.539 52.0262 97.6338 51.2478 96.3221 48.9759C95.1198 46.8934 95.6736 44.2788 97.5242 42.8471L98.0608 42.4873L110.843 35.0971L109.384 33.1102C107.332 30.434 105.088 27.9839 102.685 25.7656L105.092 19.6585C105.332 19.0509 105.515 18.4335 105.642 17.8126L105.793 16.8794L105.86 15.9548ZM89.2124 6.06687C88.2684 6.61509 87.3985 7.3123 86.6375 8.14818L85.9141 9.02989L82.488 13.6718C78.0435 12.1269 73.428 11.1273 68.7513 10.6924L68.7498 27.6204C68.7498 30.2437 66.6231 32.3704 63.9998 32.3704C61.595 32.3704 59.6077 30.5834 59.2931 28.2649L59.2498 27.6204L59.2473 10.5883C49.1351 11.3073 39.0814 14.69 30.1728 20.9279C25.0051 24.5463 20.4994 29.3021 16.7541 34.891L29.9415 42.5042C32.2134 43.8158 32.9918 46.7209 31.6801 48.9928C30.4777 51.0754 27.9365 51.903 25.7713 51.0161L25.1915 50.7314L12.0549 43.1505C11.2457 44.8365 10.4943 46.5723 9.80263 48.3519C8.85225 50.797 6.09963 52.0088 3.65448 51.0584C1.20933 50.108 -0.0024159 47.3554 0.947967 44.9102C6.05548 31.7696 14.1168 20.573 24.7238 13.1459C44.3058 -0.565578 68.6413 -2.42461 89.2124 6.06687Z" fill="#0030AA"/>
</svg>
