<svg width="175" height="175" viewBox="0 0 175 175" fill="none" xmlns="http://www.w3.org/2000/svg">
<path d="M171.74 112.189H171.74V112.178C171.74 98.2602 162.896 86.1108 150.088 81.6569C150.127 81.3796 150.166 81.1058 150.205 80.8345C150.489 78.8498 150.754 76.9976 150.754 74.8877C150.754 50.4797 130.978 30.7402 106.504 30.7402C93.6818 30.7402 81.9351 36.0192 73.6826 45.1749C69.0788 42.758 63.7992 41.4043 58.5156 41.4043C41.6419 41.4043 27.6148 53.524 24.976 69.9728C11.8117 76.4608 3.25977 90.0641 3.25977 105.068C3.25977 126.639 20.9161 144.26 42.5195 144.26H138.872C156.919 144.26 171.358 129.856 171.74 112.189ZM144.427 88.1809L144.449 88.1883L144.473 88.1935C155.62 90.6371 163.289 100.342 163.289 111.836C163.289 125.367 152.475 136.15 138.872 136.15H42.5195C25.363 136.15 11.3691 122.189 11.3691 105.068C11.3691 92.4907 18.694 81.3314 30.2533 76.4502C31.4663 76.0489 32.6874 74.8035 32.6972 73.1645C33.7453 59.5894 44.5664 49.5137 58.1397 49.5137C63.3568 49.5137 67.8861 50.9112 72.8287 53.0065C74.4887 54.1891 76.8818 53.7845 78.0904 52.1506C84.7629 43.3907 95.2783 38.166 106.504 38.166C126.498 38.166 142.645 54.2813 142.645 74.2041C142.645 77.001 142.308 80.1338 141.603 82.9578C141.084 84.6754 141.469 85.919 142.196 86.7731C142.895 87.5953 143.863 87.9992 144.427 88.1809Z" fill="#0030AA" stroke="url(#paint0_linear_88_5545)"/>
<path d="M55.0635 79.8994C58.7211 79.8994 61.707 82.8574 61.707 86.5088C61.707 88.1179 62.9905 89.4014 64.5996 89.4014C66.2088 89.4014 67.4922 88.1179 67.4922 86.5088C67.4922 79.6683 61.9003 74.1143 55.0635 74.1143C48.1916 74.1143 42.6348 79.6692 42.6348 86.5088C42.6348 93.3493 48.2267 98.9033 55.0635 98.9033C58.7211 98.9033 61.707 101.861 61.707 105.513C61.707 109.164 58.7211 112.122 55.0635 112.122C51.4058 112.122 48.4199 109.164 48.4199 105.513C48.4199 103.904 47.1365 102.62 45.5273 102.62C43.9182 102.62 42.6348 103.904 42.6348 105.513C42.6348 112.353 48.2267 117.907 55.0635 117.907C61.9354 117.907 67.4922 112.352 67.4922 105.513C67.4922 98.6703 61.8984 93.1523 55.0635 93.1523C51.4058 93.1523 48.4199 90.1944 48.4199 86.543C48.4199 82.8884 51.409 79.8994 55.0635 79.8994Z" fill="#0030AA" stroke="url(#paint1_linear_88_5545)"/>
<path d="M94.3359 79.8994C95.9451 79.8994 97.2285 78.616 97.2285 77.0068C97.2285 75.3977 95.9451 74.1143 94.3359 74.1143H74.9902C73.3811 74.1143 72.0977 75.3977 72.0977 77.0068V115.083C72.0977 116.692 73.3811 117.976 74.9902 117.976H94.3359C95.9451 117.976 97.2285 116.692 97.2285 115.083C97.2285 113.474 95.9451 112.19 94.3359 112.19H77.8828V98.9375H94.3359C95.9451 98.9375 97.2285 97.6541 97.2285 96.0449C97.2285 94.4358 95.9451 93.1523 94.3359 93.1523H77.8828V79.8994H94.3359Z" fill="#0030AA" stroke="url(#paint2_linear_88_5545)"/>
<path d="M103.707 80.8831L103.705 80.8852C100.766 84.979 99.1338 90.3477 99.1338 96.0449C99.1338 101.739 100.73 107.109 103.706 111.206C106.824 115.55 111.101 117.976 115.767 117.976C120.434 117.976 124.676 115.548 127.827 111.207L127.828 111.205C130.767 107.111 132.399 101.742 132.399 96.0449C132.399 90.35 130.803 84.9795 127.826 80.8829C124.675 76.541 120.4 74.1143 115.767 74.1143C111.134 74.1143 106.858 76.5411 103.707 80.8831ZM115.767 112.156C112.854 112.156 110.163 110.422 108.178 107.5C106.195 104.582 104.953 100.521 104.953 96.0107C104.953 91.5184 106.203 87.4577 108.191 84.534C110.181 81.607 112.872 79.8652 115.767 79.8652C118.679 79.8652 121.371 81.5998 123.355 84.5211C125.338 87.4398 126.58 91.5003 126.58 96.0107C126.58 100.521 125.338 104.582 123.355 107.5C121.371 110.422 118.679 112.156 115.767 112.156Z" fill="#0030AA" stroke="url(#paint3_linear_88_5545)"/>
<defs>
<linearGradient id="paint0_linear_88_5545" x1="113.608" y1="31.2402" x2="53.5475" y2="157.471" gradientUnits="userSpaceOnUse">
<stop offset="0.17" stop-color="#0030AA"/>
<stop offset="1" stop-color="#0030AA" stop-opacity="0.01"/>
</linearGradient>
<linearGradient id="paint1_linear_88_5545" x1="58.7826" y1="74.6143" x2="30.1677" y2="97.1401" gradientUnits="userSpaceOnUse">
<stop offset="0.235" stop-color="#0030AA"/>
<stop offset="1" stop-color="#0030AA" stop-opacity="0.01"/>
</linearGradient>
<linearGradient id="paint2_linear_88_5545" x1="88.4248" y1="74.6143" x2="59.6995" y2="97.4497" gradientUnits="userSpaceOnUse">
<stop offset="0.235" stop-color="#0030AA"/>
<stop offset="1" stop-color="#0030AA" stop-opacity="0.01"/>
</linearGradient>
<linearGradient id="paint3_linear_88_5545" x1="120.796" y1="74.6143" x2="91.3664" y2="105.897" gradientUnits="userSpaceOnUse">
<stop offset="0.235" stop-color="#0030AA"/>
<stop offset="1" stop-color="#0030AA" stop-opacity="0.01"/>
</linearGradient>
</defs>
</svg>
