<svg width="130" height="130" viewBox="0 0 130 130" fill="none" xmlns="http://www.w3.org/2000/svg">
<path d="M65.1437 80.7507C74.0386 80.7507 81.2494 73.5268 81.2494 64.6156C81.2494 55.7044 74.0386 48.4805 65.1437 48.4805C56.2488 48.4805 49.0381 55.7044 49.0381 64.6156C49.0381 73.5268 56.2488 80.7507 65.1437 80.7507Z" stroke="#0030AA" stroke-width="9"/>
<path d="M20.3761 57.2969C22.913 58.8937 24.5453 61.6141 24.5453 64.6152C24.5452 67.6169 22.9129 70.3373 20.3761 71.9341C18.6497 73.0205 17.5375 73.8891 16.7462 74.9223C15.0126 77.1861 14.2475 80.0463 14.6193 82.8748C14.898 84.996 16.1487 87.1662 18.6501 91.5071C21.1516 95.8474 22.4023 98.0176 24.0967 99.3202C26.3559 101.057 29.2112 101.823 32.0345 101.451C33.3231 101.281 34.6299 100.75 36.432 99.7962C39.0813 98.3935 42.2495 98.3376 44.8445 99.8387C47.4392 101.34 48.9746 104.116 49.0865 107.116C49.1628 109.157 49.3574 110.556 49.8549 111.759C50.9446 114.395 53.0349 116.489 55.6656 117.581C57.6391 118.399 60.1403 118.399 65.1432 118.399C70.1462 118.399 72.6474 118.399 74.6209 117.581C77.2515 116.489 79.342 114.395 80.4318 111.759C80.9289 110.556 81.1238 109.157 81.2 107.116C81.3117 104.116 82.8471 101.34 85.4422 99.8387C88.0369 98.3381 91.2049 98.3941 93.8537 99.7968C95.6565 100.751 96.9632 101.282 98.2516 101.452C101.075 101.824 103.93 101.057 106.19 99.3208C107.884 98.0187 109.135 95.8479 111.636 91.5076C112.75 89.5752 113.616 88.073 114.258 86.8134M109.91 71.9346C107.373 70.3378 105.741 67.6174 105.741 64.6163C105.741 61.6146 107.373 58.8937 109.91 57.2969C111.636 56.2104 112.748 55.3418 113.54 54.3086C115.273 52.0453 116.038 49.1848 115.667 46.3563C115.388 44.2349 114.137 42.0647 111.635 37.7242C109.134 33.3836 107.883 31.2134 106.189 29.9108C103.93 28.1741 101.074 27.4076 98.2511 27.78C96.9626 27.95 95.6559 28.4806 93.8537 29.4349C91.2043 30.8376 88.0363 30.8936 85.4417 29.3926C82.8471 27.8917 81.3117 25.1154 81.2 22.116C81.1238 20.0749 80.9289 18.6756 80.4318 17.4723C79.342 14.8367 77.2515 12.7426 74.6209 11.6508C72.6474 10.832 70.1462 10.832 65.1432 10.832C60.1403 10.832 57.6391 10.832 55.6656 11.6508C53.0349 12.7426 50.9446 14.8367 49.8549 17.4723C49.3574 18.6755 49.1628 20.0747 49.0865 22.1155C48.9745 25.1152 47.4391 27.8917 44.8442 29.3926C42.2494 30.8935 39.0815 30.8374 36.4325 29.4347C34.6301 28.4804 33.3233 27.9497 32.0346 27.7797C29.2112 27.4074 26.3559 28.1738 24.0967 29.9106C22.4024 31.2131 21.1517 33.3834 18.6502 37.7239C17.5366 39.6563 16.6708 41.1585 16.0284 42.4178" stroke="#0030AA" stroke-width="9" stroke-linecap="round"/>
</svg>
